<?xml version="1.0" encoding="utf-8"?>
<!-- Generator: Adobe Illustrator 16.0.0, SVG Export Plug-In . SVG Version: 6.00 Build 0)  -->
<!DOCTYPE svg PUBLIC "-//W3C//DTD SVG 1.1//EN" "http://www.w3.org/Graphics/SVG/1.1/DTD/svg11.dtd">
<svg version="1.1" id="레이어_1" xmlns="http://www.w3.org/2000/svg" xmlns:xlink="http://www.w3.org/1999/xlink" x="0px"
	 y="0px" width="96px" height="96px" viewBox="0 0 96 96" enable-background="new 0 0 96 96" xml:space="preserve">
<path fill="none" d="M5.042,27.518h72v66.149h-72V27.518z"/>
<path fill="none" stroke="#FFFFFF" stroke-width="3" stroke-miterlimit="10" d="M9.263,79.196h14.318V38.129H9.263V79.196z
	 M88.013,41.551c0-3.765-3.223-6.844-7.16-6.844H58.265l3.404-15.64l0.105-1.096c0-1.402-0.609-2.704-1.574-3.628l-3.795-3.593
	L32.852,33.303c-1.323,1.233-2.112,2.944-2.112,4.826v34.224c0,3.763,3.222,6.844,7.159,6.844h32.215
	c2.973,0,5.514-1.71,6.586-4.177l10.809-24.124c0.324-0.788,0.504-1.608,0.504-2.499v-6.537l-0.035-0.034L88.013,41.551z"/>
<g>
</g>
<g>
</g>
<g>
</g>
<g>
</g>
<g>
</g>
<g>
</g>
</svg>
